<svg xmlns="http://www.w3.org/2000/svg" width="240.196" height="36.57" viewBox="0 0 240.196 36.57">
  <g id="android" transform="translate(-112.01 -190.36)">
    <circle id="Elipse_1" data-name="Elipse 1" cx="3.476" cy="3.476" r="3.476" transform="translate(242.062 190.36)" fill="#fff"/>
    <path id="Trazado_957" data-name="Trazado 957" d="M277.248,223.84h-.131a.125.125,0,0,0-.092.042,10.421,10.421,0,0,1-14.5.81c-8.5-7.113-3.891-23.265,7.985-22.162a10.021,10.021,0,0,1,6.053,2.781q.645.6.645-.28V191.384A.384.384,0,0,1,277.6,191H282a.384.384,0,0,1,.384.38q.069,11.112.119,22.216c.015,3.253-.2,8.527-.015,12.806a.38.38,0,0,1-.361.4,21.843,21.843,0,0,1-4.152-.157.382.382,0,0,1-.284-.188,3.272,3.272,0,0,1-.342-2.493.1.1,0,0,0-.1-.123Zm-6.7-1.31a7.687,7.687,0,1,0-7.125-7.667A7.411,7.411,0,0,0,270.549,222.531Z" transform="translate(-90.02 -0.394)" fill="#fff"/>
    <path id="Trazado_958" data-name="Trazado 958" d="M496.472,205.561q.53.553.53-.211V191.384a.384.384,0,0,1,.384-.384H501.9a.384.384,0,0,1,.384.384v35.064a.382.382,0,0,1-.115.273.39.39,0,0,1-.277.111l-3.549-.054a1.14,1.14,0,0,1-1.3-1.2l-.031-.964q-.031-.86-.649-.261a9.791,9.791,0,0,1-9.741,2.57c-11.869-2.965-11.323-22,.476-24.233A9.707,9.707,0,0,1,496.472,205.561Zm-6.134,16.977a7.692,7.692,0,1,0-7.121-7.67A7.411,7.411,0,0,0,490.338,222.538Z" transform="translate(-225.403 -0.394)" fill="#fff"/>
    <path id="Trazado_959" data-name="Trazado 959" d="M588.753,201.191a.382.382,0,0,0,.48.157,31.935,31.935,0,0,1,26.349.023.38.38,0,0,0,.48-.154q2.727-4.513,5.45-8.992.906-1.49,2.462.054a.384.384,0,0,1,.058.469l-5.654,9.514a.384.384,0,0,0,.115.515l2.232,1.517a27.269,27.269,0,0,1,2.335,1.732,32.1,32.1,0,0,1,11.385,20.657.384.384,0,0,1-.38.438l-63.226,0a.547.547,0,0,1-.568-.519,5.609,5.609,0,0,1,.127-.979,32.609,32.609,0,0,1,15.994-22.862.388.388,0,0,0,.127-.538q-2.677-4.237-5.055-8.642a1.177,1.177,0,1,1,2.024-1.2Zm1.575,14.911a2.7,2.7,0,1,0-2.7,2.7A2.7,2.7,0,0,0,590.327,216.1Zm29.495.012a2.689,2.689,0,1,0-2.689,2.689A2.689,2.689,0,0,0,619.822,216.113Z" transform="translate(-282.243 -0.699)" fill="#fff"/>
    <path id="Trazado_960" data-name="Trazado 960" d="M131.119,223.5l0-1.713a.384.384,0,0,1,.384-.384h4.39a.384.384,0,0,1,.384.373q.207,8.112.081,16.217-.031,1.886.015,6.779a.384.384,0,0,1-.35.388,18.606,18.606,0,0,1-3.092.019,1.746,1.746,0,0,1-1.448-.641,2.837,2.837,0,0,1-.326-1.667q.042-.818-.526-.23c-6.057,6.23-15.879,2.17-18.064-5.5-1.652-5.8.415-12.091,5.927-15.007a10,10,0,0,1,11.588,1.3q.2.184.411.357Q131.119,224.323,131.119,223.5Zm-6.626,17.43a7.687,7.687,0,1,0-7.182-7.616,7.413,7.413,0,0,0,7.182,7.616Z" transform="translate(0 -18.795)" fill="#fff"/>
    <path id="Trazado_961" data-name="Trazado 961" d="M401.7,233.134a12.464,12.464,0,1,1-12.464-12.464A12.464,12.464,0,0,1,401.7,233.134Zm-12.51,7.567a7.573,7.573,0,1,0-7.16-7.587,7.382,7.382,0,0,0,7.16,7.587Z" transform="translate(-163.066 -18.668)" fill="#fff"/>
    <path id="Trazado_962" data-name="Trazado 962" d="M196.707,223.936a8.883,8.883,0,0,1,2.654-2.047,8.463,8.463,0,0,1,3.741-.841c7.071-.108,9.43,4.79,9.426,11q0,6.426.027,12.848a.382.382,0,0,1-.361.384q-1.655.1-3.246.031c-1.375-.058-1.629-.941-1.629-2.186q0-5.854-.019-11.7c-.015-6.445-7.605-7.663-10.133-2.4a8.748,8.748,0,0,0-.833,3.526q-.211,6.184-.161,12.372a.382.382,0,0,1-.373.388q-1.617.035-3.176,0a1.513,1.513,0,0,1-1.632-1.713q0-10.851-.012-21.7a.384.384,0,0,1,.384-.384h4.425a.386.386,0,0,1,.273.113.378.378,0,0,1,.111.271l0,1.84Q196.169,224.539,196.707,223.936Z" transform="translate(-48.638 -18.899)" fill="#fff"/>
    <path id="Trazado_963" data-name="Trazado 963" d="M342.719,224.882q2.481-3.991,7.459-3.276a.384.384,0,0,1,.33.38v4.555a.384.384,0,0,1-.465.376q-5.873-1.283-7.574,4.54a14.275,14.275,0,0,0-.3,3.169q-.108,5.185.069,10.57a.384.384,0,0,1-.376.4c-1.678.031-4.92.707-4.916-1.913q.008-10.755.027-21.51a.384.384,0,0,1,.384-.384h4.429a.386.386,0,0,1,.384.388l-.023,2.543Q342.143,225.812,342.719,224.882Z" transform="translate(-138.541 -19.178)" fill="#fff"/>
    <path id="Trazado_964" data-name="Trazado 964" d="M453.888,246.014q-1.133-.019-1.133-1.486l-.015-21.894a.384.384,0,0,1,.384-.384h4.517a.384.384,0,0,1,.384.384V245.7a.384.384,0,0,1-.392.384Z" transform="translate(-209.856 -19.641)" fill="#fff"/>
  </g>
</svg>
