<svg xmlns="http://www.w3.org/2000/svg" width="104.671" height="63.816" viewBox="0 0 104.671 63.816">
  <g id="Grupo_5" data-name="Grupo 5" transform="translate(-1212.31 -305)">
    <path id="Trazado_935" data-name="Trazado 935" d="M300.07,48.144a14.859,14.859,0,0,1-5.885,6.462,12.055,12.055,0,0,1-2.419.945l-1.581.264-1.581-.047a11.061,11.061,0,0,1,.132-3.621,16.588,16.588,0,0,1,1.427-3.721l.62-.93a18.926,18.926,0,0,1,2.108-2.558l1.9-1.481a15.787,15.787,0,0,1,6.354-2.417.185.185,0,0,1,.144.039.189.189,0,0,1,.069.134A13.862,13.862,0,0,1,300.07,48.144Z" transform="translate(949.699 263.961)" fill="#fafafa"/>
    <path id="Trazado_936" data-name="Trazado 936" d="M188.485,123.767a28.358,28.358,0,0,1,3.418.718,13.659,13.659,0,0,1,4.088,1.939l.5.327a11.586,11.586,0,0,1,3.1,3.379,17.533,17.533,0,0,0-3.9,3.4l-.5.69a10.806,10.806,0,0,0-1.821,3.682,13.94,13.94,0,0,0-.594,3.833,19.828,19.828,0,0,0,.329,3.656,14.854,14.854,0,0,0,1.541,3.935l.971,1.367a13.254,13.254,0,0,0,2.357,2.372l1.5,1.087,1.665.945a.189.189,0,0,1,.087.218l-.355,1.146a36.456,36.456,0,0,1-3.654,7.321L195.663,166l-1.085,1.4a24.96,24.96,0,0,1-2.6,2.737l-1.693,1.107-1.8.621a10.147,10.147,0,0,1-3.76-.179l-1.535-.465-2.047-.791a13.661,13.661,0,0,0-4.093-.884,12.844,12.844,0,0,0-2.047.078l-.6.093-.93.2q-2.29.759-4.566,1.563a21.454,21.454,0,0,1-2.69.67c-4.642-.179-7.745-4.564-10.186-8.062l-.6-.876-1.632-2.858a47.164,47.164,0,0,1-3.027-7.522l-.891-3.667-.512-4.186-.078-3.349.45-3.674a27.19,27.19,0,0,1,.945-3.3l.83-1.767.465-.876.705-1.17,1.144-1.5,1.127-1.193.6-.558.406-.348a22.676,22.676,0,0,1,2.8-1.79,16.135,16.135,0,0,1,3.606-1.241,12.367,12.367,0,0,1,3.981-.218,19.183,19.183,0,0,1,3.488.837l4.132,1.449.24.1a.621.621,0,0,0,.512.132,2.073,2.073,0,0,0,1.674.1l.14-.047,4.512-1.581a32.234,32.234,0,0,1,3.861-1.085A14.671,14.671,0,0,1,188.485,123.767Z" transform="translate(1063.02 196.668)" fill="#fafafa"/>
    <path id="Trazado_937" data-name="Trazado 937" d="M449.653,156.865a1.768,1.768,0,0,1,1.209.6q1.572,2.115-.6,3.52l-.77.255a2.984,2.984,0,0,1-1.974-.752,2.46,2.46,0,0,1-.372-2.326A2.153,2.153,0,0,1,449.653,156.865Z" transform="translate(820.697 169.717)" fill="#fafafa"/>
    <path id="Trazado_938" data-name="Trazado 938" d="M495.511,157l-.048.02q-.156.067.011.093l1.572.251,1.621.473.108.14a1.838,1.838,0,0,0,.69.318l1.14.679a11.527,11.527,0,0,1,2.48,2.631,13.431,13.431,0,0,1,1.085,2.14l.45,1.488a19.043,19.043,0,0,1,.471,3.444,14.345,14.345,0,0,1-.378,3.952l-.636,2.279-.566,1.2a9.789,9.789,0,0,1-4.268,4.173,1.933,1.933,0,0,0-.768.288.19.19,0,0,1-.14.026q-.188-.041-.173.164l-.519.193a.832.832,0,0,0-.6.132l-.069.011a8.7,8.7,0,0,1-2.582.314.951.951,0,0,0-.744.047l-1.4-.032L491,181.133l-1.116-.264a10.583,10.583,0,0,1-2.5-1.217l-1.17-.938a11.884,11.884,0,0,1-2.24-3.062l-.5-1.31-.132-.458-.279-1.023a17.169,17.169,0,0,1-.154-6.6,16.176,16.176,0,0,1,.852-2.884l.5-1.062a10.634,10.634,0,0,1,3.807-3.961.79.79,0,0,0,.6-.279l2.008-.705.465-.078,1.256-.233Zm-2.837,3.667a4.361,4.361,0,0,0-2.045.752,5.375,5.375,0,0,0-1.174.9,5.756,5.756,0,0,0-1.626,2.307l-.651,2.233-.093.326a3.2,3.2,0,0,0-.078,1.256l-.015,1.4a3.93,3.93,0,0,0,.14,1.535,1.8,1.8,0,0,0,.236.906,6.692,6.692,0,0,0,3.818,5.008,1.331,1.331,0,0,0,1.016.318,4.467,4.467,0,0,0,1.31.225,7.423,7.423,0,0,0,2-.186,2.546,2.546,0,0,0,1.3-.45l.093-.093a4.871,4.871,0,0,0,1.76-1.356,6.715,6.715,0,0,0,1.65-3.25,10.9,10.9,0,0,0,.4-4.192,1.482,1.482,0,0,0-.032-.93l-.326-1.488-.333-.938a6.311,6.311,0,0,0-6.512-4.326A1.351,1.351,0,0,0,492.674,160.667Z" transform="translate(791.677 169.575)" fill="#fafafa"/>
    <path id="Trazado_939" data-name="Trazado 939" d="M624.545,157.332h.186l1.527.551a11.425,11.425,0,0,1,2.352,1.55,7.078,7.078,0,0,1,1.555,2.5,5.793,5.793,0,0,1,.378,1.916.183.183,0,0,1-.051.133.187.187,0,0,1-.131.057l-1.131.028-2.554,0a.186.186,0,0,1-.184-.16,3.615,3.615,0,0,0-1.474-2.482l-.238-.136a6.211,6.211,0,0,0-2.328-.694l-.977-.015a3.535,3.535,0,0,0-2.372.512l-.047.046c-1.522.759-2.45,2.854-1.124,4.24a6.653,6.653,0,0,0,3.3,1.535l3.911.986.655.184a1.056,1.056,0,0,0,.752.225,6.329,6.329,0,0,1,4.14,4.015,7.513,7.513,0,0,1,0,3.846,6.628,6.628,0,0,1-3.457,4.186l-1.194.512-.054.039a.482.482,0,0,0-.512.14l-.372.108a12.245,12.245,0,0,1-2.419.357,1.415,1.415,0,0,0-.93.047l-1.721-.032-.186-.093-.93-.14-.227-.095a7.219,7.219,0,0,1-3.168-1.222l-1.341-1.155-.579-.692A10.877,10.877,0,0,1,612.49,175l-.05-.493,3.929-.041a.183.183,0,0,1,.173.115,3.008,3.008,0,0,1,.149.478c.432,1.965,2.882,2.927,4.644,3a6.653,6.653,0,0,0,3.674-.744,3.879,3.879,0,0,0,1.23-1.085c1.81-3.483-2.333-4.72-4.718-5.1l-1.953-.512a1.565,1.565,0,0,0-.791-.171l-1.814-.659-.884-.473-.372-.171a.548.548,0,0,1-.391-.29.182.182,0,0,0-.061-.069,5.1,5.1,0,0,1-1.157-1.118,4.2,4.2,0,0,1-.549-.832l-.128-.4-.2-.789q-.019-.069-.03,0l-.006.041-.039-.007a11.139,11.139,0,0,1,.007-2.83l.125-.6.387-1.07.086-.147a.081.081,0,0,0,.056.006.048.048,0,0,0,.033-.026,5.517,5.517,0,0,1,.895-1.321l1.062-.923.14-.108a.5.5,0,0,0,.465-.311l2.233-.9.558-.078a15.329,15.329,0,0,1,3.408-.255C623.173,157.146,623.869,157.346,624.545,157.332Z" transform="translate(686.039 169.482)" fill="#fafafa"/>
    <path id="Trazado_940" data-name="Trazado 940" d="M449.485,192.45c.365.061,2.283.093,2.365.179l.015,4.651V199l.047,2.326-.065,8.372a.188.188,0,0,1-.18.186l-1.669.054-2.089-.056a.185.185,0,0,1-.18-.182l-.017-.886.007-3.987-.007-3.548.011-3.773,0-.6,0-4.2a.189.189,0,0,1,.156-.184A6.574,6.574,0,0,1,449.485,192.45Z" transform="translate(820.121 140.737)" fill="#fafafa"/>
  </g>
</svg>
