<svg xmlns="http://www.w3.org/2000/svg" width="48.845" height="49.611" viewBox="0 0 48.845 49.611">
  <path id="Trazado_14" data-name="Trazado 14" d="M418.283,57.861c0,.028.005.058.009.088,0,.055.013.111.018.165a7,7,0,0,0,.29,1.412.946.946,0,0,0,.157.337l.007,0h.014a2.165,2.165,0,0,0-.044-.657,7.113,7.113,0,0,1,.015-1.859.141.141,0,0,1,0-.016,6.419,6.419,0,0,1,1.951-3.116c1.73-1.394,4.341-2.129,7.385-2.588q.4-.06.815-.1l.048,0a32.327,32.327,0,0,1,5.8.215,29.965,29.965,0,0,1,9.083,3.08,25.386,25.386,0,0,1,2.734,1.658,32.833,32.833,0,0,1,4.326,3.879l.018.019q-.342,1.467-.8,2.94c-2.242,6.56-5.647,11.312-9.014,13.63a12.812,12.812,0,0,1-3.344,1.489,5.578,5.578,0,0,1-1.192.1,7.143,7.143,0,0,1-1.2-.036c-1.026-.11-.905.95-.17,1.152.267.074.532.152.759.223.7.182,1.414.334,2.129.45a23.759,23.759,0,0,0,4.376.277,23.422,23.422,0,0,0,14.08-5.232c.2,1.982.617,2.54,1.5.727a7.749,7.749,0,0,0,.615-2.619,23.591,23.591,0,0,0,4.952-7.384c.714,2.4,1.041,3.977,2.276-.646a7.132,7.132,0,0,0-.727-4.724,23.663,23.663,0,0,0,.293-4.521c-.017-.577-.056-1.145-.115-1.712,1.35,1.769,3.032,3.251.251-4.949a14.4,14.4,0,0,0-4.974-6.925q-.662-.864-1.4-1.664c-.873-2.554-2.114-4.7-3.844-5.8-3.374-2.128-3.438-1.016-2.463.95a23.444,23.444,0,0,0-3.1-1.359,7.889,7.889,0,0,0-4.149-3.51c-2.971-.848-2.185.742-.926,2.324a23.8,23.8,0,0,0-3.525-.152,23.515,23.515,0,0,0-19.577,11.615,24.4,24.4,0,0,0-3.15,8.518A18.269,18.269,0,0,0,418.283,57.861Zm29.878-19.9a43.5,43.5,0,0,0-8.059-.522c-5.544.6-11.439,1.976-16.494,6.2a22.113,22.113,0,0,1,6.83-5.654,22.609,22.609,0,0,1,16.843-1.4c.134.167.272.344.421.546A7.968,7.968,0,0,1,448.161,37.957Zm3.512,9.717c-3.376-1.794-8.944-4.232-17.963-3.421a28.035,28.035,0,0,0-4.518.764c-4.1,1.031-7.282,2.9-8.844,5.209-.167.207-.314.4-.441.582a12.1,12.1,0,0,1,3.3-5.515,21.134,21.134,0,0,1,6.257-3.729A32.238,32.238,0,0,1,440.1,39.893c.7.023,1.424.066,2.17.135a33.743,33.743,0,0,1,5.651,1c.767.226,1.525.483,2.267.765A27.038,27.038,0,0,1,451.672,47.674Zm6.963,4.732a22.068,22.068,0,0,0-4.391-3.35l-.024-.013a28.441,28.441,0,0,0-.814-5.818,28.844,28.844,0,0,1,4.053,2.537c.263.816.491,1.668.68,2.547A32.951,32.951,0,0,1,458.635,52.405Zm2.217-2.831c-.022-.259-.044-.519-.073-.782.046.048.092.1.135.146a22.432,22.432,0,0,1,1.771,7.858c-.51-.66-1.058-1.308-1.617-1.928M458.06,66.984a29.929,29.929,0,0,0,1.963-5.592c.2-.754.374-1.508.52-2.256a20.006,20.006,0,0,1,1.633,3.3,25.566,25.566,0,0,1-3.524,7.867l-.037.049A22.112,22.112,0,0,0,458.06,66.984Zm-4.736-7.66c.189-.859.348-1.7.473-2.529q.082-.529.148-1.046c.155-1.225.246-2.4.29-3.515a27.033,27.033,0,0,1,4.383,4.2,32.163,32.163,0,0,1-1.543,7.93A26.55,26.55,0,0,0,453.324,59.324Zm-1.191,4.24q.221-.643.413-1.277a19.939,19.939,0,0,1,2.963,5.765,26.082,26.082,0,0,1-4.447,6.336,20.711,20.711,0,0,1-4.672,3.446,11.127,11.127,0,0,1-3.862,1.08q-.955.07-1.913.062a17.539,17.539,0,0,0,4.421-3.486A30.867,30.867,0,0,0,452.133,63.565Zm-33.315-7.907c.014-.166.028-.335.046-.5a9.943,9.943,0,0,1,.793-2.49,12.493,12.493,0,0,1,6.594-5.363c4.355-1.559,10.51-1.886,17.033-.323a29.335,29.335,0,0,1,8.624,3.638,36.627,36.627,0,0,1-.434,6.872A28.447,28.447,0,0,0,429,49.985c-4.41.438-7.112,1.736-8.681,3.447A4.632,4.632,0,0,0,418.819,55.658Z" transform="translate(-418.23 -30.995)" fill="#00457d"/>
</svg>
