<svg xmlns="http://www.w3.org/2000/svg" width="278.865" height="87.375" viewBox="0 0 278.865 87.375">
  <g id="Grupo_4" data-name="Grupo 4" transform="translate(-75.013 -30.995)">
    <g id="Grupo_1" data-name="Grupo 1" transform="translate(75.013 68.459)">
      <path id="Trazado_1" data-name="Trazado 1" d="M82.424,97.673v22.134q0,4.117,1.546,6.075,1.642,1.851,5.249,1.85a6.887,6.887,0,0,0,5.248-1.85q1.646-1.855,1.65-6.075V97.673h7.31V120.63q0,6.593-3.709,9.987-3.394,3.4-10.5,3.4t-10.5-3.4q-3.707-3.4-3.707-9.987V101.585a3.834,3.834,0,0,1,1.03-2.674,3.517,3.517,0,0,1,2.676-1.237Z" transform="translate(-75.013 -97.673)" fill="#fff" fill-rule="evenodd"/>
      <path id="Trazado_2" data-name="Trazado 2" d="M151,139.05h-3.6a3.21,3.21,0,0,1-3.5-3.5v-14a4.176,4.176,0,0,0-1.542-3.6,5.357,5.357,0,0,0-6.59,0,4.3,4.3,0,0,0-1.44,3.6v17.5h-7.207V122.992q0-7,3.6-9.367a16.247,16.247,0,0,1,8.134-2.57,15.49,15.49,0,0,1,8.336,2.365Q151,115.79,151,122.992Z" transform="translate(-97.843 -103.536)" fill="#fff" fill-rule="evenodd"/>
      <path id="Trazado_3" data-name="Trazado 3" d="M172.743,105.887h3.7a3.517,3.517,0,0,1,3.5,3.5v23.881h-7.2Zm0-8.031h3.7a3.521,3.521,0,0,1,3.5,3.5v2.162h-7.2Z" transform="translate(-117.833 -97.753)" fill="#fff" fill-rule="evenodd"/>
      <path id="Trazado_4" data-name="Trazado 4" d="M203,139.53h-7.306l-9.576-27.38h7.617l5.457,19.252,4.839-16.781a3.229,3.229,0,0,1,3.294-2.471h5.352Z" transform="translate(-123.691 -104.016)" fill="#fff" fill-rule="evenodd"/>
      <path id="Trazado_5" data-name="Trazado 5" d="M254.146,130.61h5.148a11.22,11.22,0,0,1-4.325,6.591,13.1,13.1,0,0,1-8.03,2.364q-5.865,0-9.161-3.806-3.293-3.707-3.3-10.6,0-6.586,3.193-10.293,3.294-3.812,9.163-3.809,6.178,0,9.572,3.7,3.294,3.809,3.3,10.605v1.13a1.808,1.808,0,0,1-.1.721h-17.81a7.068,7.068,0,0,0,1.544,4.735,4.859,4.859,0,0,0,4.014,1.646,5.824,5.824,0,0,0,2.985-.719,1.257,1.257,0,0,0,.516-.31c.206-.205.411-.412.619-.618a2.277,2.277,0,0,1,.719-.823A3.32,3.32,0,0,1,254.146,130.61Zm-12.352-8.028h10.5a6.682,6.682,0,0,0-1.441-4.118,4.953,4.953,0,0,0-3.809-1.441,5.015,5.015,0,0,0-3.705,1.441A5.9,5.9,0,0,0,241.794,122.582Z" transform="translate(-144.883 -103.536)" fill="#fff" fill-rule="evenodd"/>
      <path id="Trazado_6" data-name="Trazado 6" d="M281.392,139.53V126.255a17.228,17.228,0,0,1,1.132-6.692,11.542,11.542,0,0,1,3.293-4.428,12.823,12.823,0,0,1,4.532-2.264,20.912,20.912,0,0,1,5.453-.72h1.032v7.308h-2.367a6.022,6.022,0,0,0-4.427,1.443,6.176,6.176,0,0,0-1.443,4.529v14.1Z" transform="translate(-165.436 -104.016)" fill="#fff" fill-rule="evenodd"/>
      <path id="Trazado_7" data-name="Trazado 7" d="M309.051,129.995h7a3.782,3.782,0,0,0,1.544,3.085,7.281,7.281,0,0,0,4.116,1.032,6.658,6.658,0,0,0,3.192-.72,2.19,2.19,0,0,0,1.236-1.956q0-1.855-4.322-2.78a19.938,19.938,0,0,1-2.783-.618q-5.452-1.337-7.309-3.192a6.322,6.322,0,0,1-2.056-4.94,8.2,8.2,0,0,1,2.985-6.486,12.833,12.833,0,0,1,8.03-2.365,14.014,14.014,0,0,1,8.542,2.365,9.053,9.053,0,0,1,3.192,6.693h-4.428a3.274,3.274,0,0,1-2.983-1.749c-.277-.277-.549-.552-.824-.824a5.548,5.548,0,0,0-3.4-.925,6.107,6.107,0,0,0-3.089.615,2.077,2.077,0,0,0-.929,1.854q0,1.643,5.356,2.778c.412.14.753.24,1.03.31a4.832,4.832,0,0,0,.923.1q5.254,1.337,7.309,3.09a6.474,6.474,0,0,1,1.959,4.94,8.232,8.232,0,0,1-3.3,7q-3.088,2.27-9.263,2.264-5.87,0-8.753-2.364a8.3,8.3,0,0,1-2.986-6.9Z" transform="translate(-177.555 -103.536)" fill="#fff" fill-rule="evenodd"/>
      <path id="Trazado_8" data-name="Trazado 8" d="M369.684,125.258a19.3,19.3,0,0,1-4.017,1.338l-2.367.516a6.092,6.092,0,0,0-2.676,1.337,4.188,4.188,0,0,0-.721,2.266,3.333,3.333,0,0,0,.928,2.47,3.9,3.9,0,0,0,2.677.823,5.7,5.7,0,0,0,6.176-6.177Zm1.648,12.661a11.967,11.967,0,0,1-4.631,1.338,32.823,32.823,0,0,1-4.223.308,10.941,10.941,0,0,1-6.485-1.955q-2.781-2.059-2.779-6.688,0-4.326,2.471-6.179a14.95,14.95,0,0,1,6.483-2.47,9.141,9.141,0,0,0,1.236-.1,10.724,10.724,0,0,1,1.649-.31q4.525-.617,4.529-2.676a1.888,1.888,0,0,0-1.648-1.955,9.2,9.2,0,0,0-2.88-.516,7.491,7.491,0,0,0-2.574.412,2.809,2.809,0,0,0-1.647,1.544h-6.9a7.912,7.912,0,0,1,2.881-5.251q2.78-2.367,7.926-2.365,5.766,0,8.647,1.954a6.608,6.608,0,0,1,2.985,5.766v9.366a11.766,11.766,0,0,1-1.544,6.487A8.909,8.909,0,0,1,371.332,137.919Z" transform="translate(-196.904 -103.536)" fill="#fff" fill-rule="evenodd"/>
      <path id="Trazado_9" data-name="Trazado 9" d="M396.82,97.856h3.7a3.372,3.372,0,0,1,2.471,1.033,3.035,3.035,0,0,1,1.029,2.367v32.012h-7.2Z" transform="translate(-216.01 -97.753)" fill="#fff" fill-rule="evenodd"/>
      <path id="Trazado_10" data-name="Trazado 10" d="M430.4,130.61h5.149a11.243,11.243,0,0,1-4.325,6.591,13.108,13.108,0,0,1-8.029,2.364q-5.866,0-9.161-3.806-3.3-3.707-3.295-10.6,0-6.586,3.191-10.293,3.294-3.812,9.162-3.809,6.179,0,9.574,3.7,3.294,3.809,3.294,10.605v1.13a1.81,1.81,0,0,1-.1.721h-17.81a7.085,7.085,0,0,0,1.541,4.735,4.871,4.871,0,0,0,4.019,1.646,5.815,5.815,0,0,0,2.983-.719,1.3,1.3,0,0,0,.517-.31c.2-.205.409-.412.617-.618a2.257,2.257,0,0,1,.719-.823A3.321,3.321,0,0,1,430.4,130.61Zm-12.351-8.028h10.5a6.689,6.689,0,0,0-1.438-4.118,4.96,4.96,0,0,0-3.811-1.441,5.023,5.023,0,0,0-3.708,1.441A5.911,5.911,0,0,0,418.052,122.582Z" transform="translate(-222.11 -103.536)" fill="#fff" fill-rule="evenodd"/>
      <path id="Trazado_11" data-name="Trazado 11" d="M456.548,129.995h7a3.792,3.792,0,0,0,1.545,3.085,7.294,7.294,0,0,0,4.117,1.032,6.661,6.661,0,0,0,3.192-.72,2.188,2.188,0,0,0,1.236-1.956q0-1.855-4.324-2.78a19.806,19.806,0,0,1-2.778-.618q-5.46-1.337-7.311-3.192a6.32,6.32,0,0,1-2.056-4.94,8.2,8.2,0,0,1,2.984-6.486,12.827,12.827,0,0,1,8.029-2.365,14.014,14.014,0,0,1,8.543,2.365,9.062,9.062,0,0,1,3.194,6.693h-4.429a3.273,3.273,0,0,1-2.984-1.749c-.275-.277-.551-.552-.823-.824a5.544,5.544,0,0,0-3.4-.925,6.115,6.115,0,0,0-3.088.615,2.079,2.079,0,0,0-.925,1.854q0,1.643,5.353,2.778c.411.14.753.24,1.027.31a4.914,4.914,0,0,0,.927.1q5.251,1.337,7.311,3.09a6.491,6.491,0,0,1,1.954,4.94,8.222,8.222,0,0,1-3.3,7q-3.088,2.27-9.264,2.264-5.867,0-8.749-2.364a8.276,8.276,0,0,1-2.986-6.9Z" transform="translate(-242.179 -103.536)" fill="#fff" fill-rule="evenodd"/>
    </g>
    <path id="Trazado_12" data-name="Trazado 12" d="M418.323,78.311c.005.049.009.1.016.155.007.1.022.2.031.29a12.341,12.341,0,0,0,.511,2.487,1.666,1.666,0,0,0,.276.594l.013,0h.025a3.814,3.814,0,0,0-.078-1.157,12.524,12.524,0,0,1,.026-3.273.241.241,0,0,1,0-.029,11.306,11.306,0,0,1,3.436-5.487c3.046-2.456,7.646-3.75,13.006-4.558q.7-.105,1.436-.181l.085,0a56.935,56.935,0,0,1,10.224.378,52.776,52.776,0,0,1,16,5.425,44.715,44.715,0,0,1,4.815,2.921,57.826,57.826,0,0,1,7.618,6.832l.031.033q-.6,2.583-1.415,5.178c-3.948,11.553-9.945,19.923-15.875,24.005a22.567,22.567,0,0,1-5.889,2.623,9.825,9.825,0,0,1-2.1.173,12.582,12.582,0,0,1-2.118-.064c-1.807-.193-1.594,1.673-.3,2.029.471.13.937.268,1.337.393,1.239.32,2.49.588,3.749.792a41.846,41.846,0,0,0,7.708.488,41.251,41.251,0,0,0,24.8-9.214c.351,3.491,1.087,4.474,2.635,1.281a13.647,13.647,0,0,0,1.083-4.612,41.549,41.549,0,0,0,8.721-13c1.257,4.223,1.833,7,4.008-1.138.666-2.5.071-5.378-1.281-8.319a41.675,41.675,0,0,0,.517-7.962c-.03-1.016-.1-2.017-.2-3.014,2.378,3.115,5.34,5.726.442-8.717a25.364,25.364,0,0,0-8.76-12.2q-1.166-1.522-2.468-2.931c-1.537-4.5-3.723-8.284-6.771-10.21-5.942-3.748-6.055-1.789-4.338,1.674a41.289,41.289,0,0,0-5.452-2.394c-1.914-2.909-4.314-5.326-7.306-6.183-5.233-1.493-3.849,1.307-1.632,4.093a41.911,41.911,0,0,0-6.208-.269A41.414,41.414,0,0,0,424.2,55.692a42.965,42.965,0,0,0-5.547,15A32.177,32.177,0,0,0,418.323,78.311Zm52.621-35.054c-5.926-.728-11.189-1.243-14.194-.919-9.763,1.053-20.146,3.48-29.049,10.924A38.947,38.947,0,0,1,439.731,43.3,39.82,39.82,0,0,1,469.4,40.837c.236.294.479.606.742.962A14.033,14.033,0,0,1,470.945,43.257Zm6.185,17.113c-5.946-3.16-15.752-7.454-31.636-6.025a49.377,49.377,0,0,0-7.956,1.345c-7.215,1.815-12.825,5.114-15.576,9.175-.295.365-.552.707-.777,1.025a21.3,21.3,0,0,1,5.811-9.712,37.221,37.221,0,0,1,11.02-6.568,56.778,56.778,0,0,1,18.738-2.943c1.233.04,2.508.116,3.822.237a59.428,59.428,0,0,1,9.953,1.76c1.351.4,2.686.85,3.992,1.347A47.619,47.619,0,0,1,477.129,60.37ZM489.392,68.7a38.865,38.865,0,0,0-7.733-5.9l-.043-.022a50.088,50.088,0,0,0-1.434-10.247A50.8,50.8,0,0,1,487.32,57c.462,1.438.864,2.939,1.2,4.486A58.046,58.046,0,0,1,489.392,68.7Zm3.9-4.985c-.038-.456-.078-.914-.128-1.377.081.084.162.171.238.257a39.506,39.506,0,0,1,3.119,13.84c-.9-1.163-1.863-2.3-2.848-3.395m-5.3,21.335a52.706,52.706,0,0,0,3.458-9.848c.357-1.328.659-2.655.916-3.974a35.238,35.238,0,0,1,2.876,5.82,45.028,45.028,0,0,1-6.206,13.856l-.065.085A38.945,38.945,0,0,0,488.38,94.379Zm-8.341-13.491c.333-1.514.612-3,.833-4.454q.144-.931.261-1.843c.272-2.157.434-4.23.51-6.191a47.612,47.612,0,0,1,7.719,7.4,56.644,56.644,0,0,1-2.718,13.966A46.761,46.761,0,0,0,480.038,80.889Zm-2.1,7.468q.389-1.132.728-2.25a35.116,35.116,0,0,1,5.219,10.153,45.937,45.937,0,0,1-7.833,11.159,36.474,36.474,0,0,1-8.228,6.069,19.6,19.6,0,0,1-6.8,1.9q-1.682.123-3.37.11a30.888,30.888,0,0,0,7.786-6.139C470.126,104.68,474.733,97.739,477.941,88.357ZM419.267,74.431c.025-.293.049-.589.08-.88a17.513,17.513,0,0,1,1.4-4.385c1.615-2.823,4.963-6.883,11.613-9.445,7.67-2.745,18.51-3.322,30-.569a51.665,51.665,0,0,1,15.188,6.408,64.505,64.505,0,0,1-.764,12.1A50.1,50.1,0,0,0,437.2,64.44c-7.768.771-12.525,3.058-15.289,6.071A8.159,8.159,0,0,0,419.267,74.431Z" transform="translate(-150.377)" fill="#fff"/>
  </g>
</svg>
